<?xml version="1.0" encoding="UTF-8"?>
<svg width="48" height="48" viewBox="0 0 48 48" fill="none" xmlns="http://www.w3.org/2000/svg">
  <rect width="48" height="48" rx="8" fill="#E5E7EB"/>
  <path d="M24 14C19.5817 14 16 17.5817 16 22C16 25.0913 17.7914 27.7819 20.3953 29H27.6047C30.2086 27.7819 32 25.0913 32 22C32 17.5817 28.4183 14 24 14ZM24 26C21.7909 26 20 24.2091 20 22C20 19.7909 21.7909 18 24 18C26.2091 18 28 19.7909 28 22C28 24.2091 26.2091 26 24 26Z" fill="#9CA3AF"/>
  <path d="M20.3953 29C17.7914 30.2181 16 32.9087 16 36H32C32 32.9087 30.2086 30.2181 27.6047 29H20.3953Z" fill="#9CA3AF"/>
</svg>
